<?xml version="1.0" encoding="UTF-8" standalone="no"?>
<!-- Created with Inkscape (http://www.inkscape.org/) -->

<svg
   xmlns:dc="http://purl.org/dc/elements/1.1/"
   xmlns:cc="http://creativecommons.org/ns#"
   xmlns:rdf="http://www.w3.org/1999/02/22-rdf-syntax-ns#"
   xmlns:svg="http://www.w3.org/2000/svg"
   xmlns="http://www.w3.org/2000/svg"
   xmlns:sodipodi="http://sodipodi.sourceforge.net/DTD/sodipodi-0.dtd"
   xmlns:inkscape="http://www.inkscape.org/namespaces/inkscape"
   width="500"
   height="500"
   viewBox="0 0 500.00001 500.00001"
   id="svg2"
   version="1.1"
   inkscape:version="0.91 r13725"
   sodipodi:docname="logo.svg"
   inkscape:export-filename="/home/sunjay/Documents/projects/brain/logo/logo.png"
   inkscape:export-xdpi="90"
   inkscape:export-ydpi="90">
  <defs
     id="defs4">
    <inkscape:path-effect
       effect="spiro"
       id="path-effect4201"
       is_visible="true" />
    <inkscape:path-effect
       effect="spiro"
       id="path-effect4227"
       is_visible="true" />
    <inkscape:path-effect
       effect="spiro"
       id="path-effect4180"
       is_visible="true" />
    <inkscape:path-effect
       effect="skeletal"
       id="path-effect3362"
       is_visible="true"
       pattern="m 2.4720058,542.26691 c 0,-2.76 2.24,-5 5,-5 2.7600002,0 5.0000002,2.24 5.0000002,5 0,2.76 -2.24,5 -5.0000002,5 -2.76,0 -5,-2.24 -5,-5 z"
       copytype="single_stretched"
       prop_scale="1"
       scale_y_rel="false"
       spacing="0"
       normal_offset="0"
       tang_offset="0"
       prop_units="false"
       vertical_pattern="false"
       fuse_tolerance="0" />
    <inkscape:path-effect
       effect="spiro"
       id="path-effect3360"
       is_visible="true" />
    <inkscape:path-effect
       effect="skeletal"
       id="path-effect3356"
       is_visible="true"
       pattern="m 0,557.36216 c 0,-2.76 2.24,-5 5,-5 2.76,0 5,2.24 5,5 0,2.76 -2.24,5 -5,5 -2.76,0 -5,-2.24 -5,-5 z"
       copytype="single_stretched"
       prop_scale="1"
       scale_y_rel="false"
       spacing="0"
       normal_offset="0"
       tang_offset="0"
       prop_units="false"
       vertical_pattern="false"
       fuse_tolerance="0" />
    <inkscape:path-effect
       effect="spiro"
       id="path-effect3354"
       is_visible="true" />
    <inkscape:path-effect
       effect="skeletal"
       id="path-effect3350"
       is_visible="true"
       pattern="m 0,557.36216 c 0,-2.76 2.24,-5 5,-5 2.76,0 5,2.24 5,5 0,2.76 -2.24,5 -5,5 -2.76,0 -5,-2.24 -5,-5 z"
       copytype="single_stretched"
       prop_scale="1"
       scale_y_rel="false"
       spacing="0"
       normal_offset="0"
       tang_offset="0"
       prop_units="false"
       vertical_pattern="false"
       fuse_tolerance="0" />
    <inkscape:path-effect
       effect="spiro"
       id="path-effect3348"
       is_visible="true" />
    <inkscape:path-effect
       effect="spiro"
       id="path-effect3344"
       is_visible="true" />
  </defs>
  <sodipodi:namedview
     id="base"
     pagecolor="#ffffff"
     bordercolor="#666666"
     borderopacity="1.0"
     inkscape:pageopacity="0.0"
     inkscape:pageshadow="2"
     inkscape:zoom="1.4"
     inkscape:cx="224.01771"
     inkscape:cy="259.18243"
     inkscape:document-units="px"
     inkscape:current-layer="layer1"
     showgrid="false"
     units="px"
     inkscape:window-width="1920"
     inkscape:window-height="1027"
     inkscape:window-x="0"
     inkscape:window-y="0"
     inkscape:window-maximized="1" />
  <metadata
     id="metadata7">
    <rdf:RDF>
      <cc:Work
         rdf:about="">
        <dc:format>image/svg+xml</dc:format>
        <dc:type
           rdf:resource="http://purl.org/dc/dcmitype/StillImage" />
        <dc:title />
      </cc:Work>
    </rdf:RDF>
  </metadata>
  <g
     inkscape:label="Layer 1"
     inkscape:groupmode="layer"
     id="layer1"
     transform="translate(0,-552.36216)">
    <path
       style="fill:#ffcdd2;fill-opacity:1;fill-rule:evenodd;stroke:#000000;stroke-width:10;stroke-linecap:butt;stroke-linejoin:miter;stroke-miterlimit:4;stroke-dasharray:none;stroke-opacity:1"
       d="m 445.98235,911.44587 c 3.64047,-6.16893 7.17668,-12.39939 10.60661,-18.68781 5.77865,-10.59455 11.27598,-21.40142 15.15229,-32.82996 3.86339,-11.39043 6.08209,-23.33729 6.56599,-35.35534 4.87452,-12.79204 7.18525,-26.55511 6.75564,-40.23768 -0.376,-11.97497 -2.84465,-23.88138 -7.26071,-35.01869 1.58986,-19.01704 -2.36323,-38.46479 -11.25125,-55.35202 -8.88802,-16.88723 -22.68062,-31.15629 -39.25639,-40.61247 -13.69775,-7.81433 -29.03644,-12.30828 -44.44669,-15.65736 -27.18454,-5.90796 -55.02082,-8.44922 -82.83252,-9.09138 -29.95298,-0.6916 -60.09565,0.82589 -89.3985,7.07107 -26.17203,5.57792 -51.39982,14.8626 -76.26652,24.74874 -15.90549,6.32347 -31.77372,12.93888 -46.467024,21.71828 -15.596054,9.3188 -30.001638,21.31988 -39.39595,36.87057 -5.936005,9.82605 -9.751569,20.92587 -11.11168,32.32488 -6.800131,2.27637 -12.840329,6.76396 -16.982808,12.61747 -4.142478,5.8535 -6.365637,13.04238 -6.250702,20.21249 0.175821,10.96836 6.025673,21.69309 15.15229,27.77919 -4.595603,4.67553 -7.636673,10.854 -8.53856,17.34759 -0.901887,6.49359 0.340319,13.26696 3.4878,19.01791 4.27652,7.81389 11.754513,13.47268 16.16244,21.2132 1.390465,2.44172 2.452835,5.0535 3.67984,7.58131 1.227006,2.52782 2.644517,5.00688 4.62235,7.00277 2.449043,2.4714 5.62323,4.07311 8.772654,5.55188 3.149423,1.47877 6.378339,2.90447 9.062846,5.11785 2.559917,2.11065 4.515312,4.8487 6.401002,7.57857 1.885691,2.72987 3.756166,5.51293 6.194338,7.76312 3.989946,3.68232 9.438655,5.73867 14.866617,5.61068 5.427961,-0.12799 10.773697,-2.43886 14.585647,-6.30515 3.56234,6.26241 9.33486,11.23793 16.05421,13.83762 9.32082,3.60619 20.34996,2.43766 28.70818,-3.04162 3.63031,10.7249 11.091,20.10893 20.7215,26.06344 9.63049,5.95451 21.35941,8.43534 32.57616,6.89034 9.36931,-1.29054 18.16782,-5.24624 27.43489,-7.13592 4.63353,-0.94484 9.42261,-1.3667 14.09757,-0.65456 4.67495,0.71214 9.24483,2.61638 12.67315,5.87353 3.15482,2.99731 5.19139,6.95185 7.22574,10.79869 2.03435,3.84684 4.19888,7.75757 7.52168,10.5675 3.69955,3.12853 8.60909,4.62945 13.4537,4.69317 4.84462,0.0637 9.63362,-1.23203 14.06791,-3.18431 8.86859,-3.90457 16.37575,-10.34607 24.93602,-14.88691 18.18513,-9.64641 39.67322,-10.09331 59.62182,-15.17326 21.82721,-5.55834 42.14575,-16.92986 58.29842,-32.62742 z"
       id="path4225"
       inkscape:path-effect="#path-effect4227"
       inkscape:original-d="m 445.98235,911.44587 c 0,0 -5.55583,-9.59644 10.60661,-18.68781 16.16244,-9.09138 -1.01016,-23.23351 15.15229,-32.82996 16.16244,-9.59645 6.56599,-35.35534 6.56599,-35.35534 4.1461,-24.35833 6.6189,-32.73292 6.75564,-40.23768 0.13674,-7.50476 -2.06258,-14.13969 -7.26071,-35.01869 -4.61734,-37.58168 -11.86811,-82.43674 -50.50764,-95.96449 -14.50111,-4.39427 -13.63706,-9.59645 -44.44669,-15.65736 -32.60663,-6.41442 -48.22544,-1.6991 -82.83252,-9.09138 -33.42544,-7.13988 -56.06347,-19.69798 -89.3985,7.07107 -16.45565,13.21439 -24.99639,33.70269 -76.26652,24.74874 -6.01187,-1.04993 -41.921344,18.18274 -46.467024,21.71828 -4.54569,3.53553 -18.18275,23.23351 -39.39595,36.87057 -21.21321,13.63705 -11.11168,32.32488 -11.11168,32.32488 0,0 -23.23351,7.57614 -23.23351,32.82996 0,25.25381 15.15229,27.77919 15.15229,27.77919 0,0 -40.4061,11.61676 -5.05076,36.3655 35.35534,24.74873 63.36522,4.74712 16.16244,21.2132 -5.42957,1.89403 4.64038,8.90197 8.30219,14.58408 3.6618,5.6821 8.49159,3.97747 17.8355,10.66973 9.34391,6.69226 -3.42812,5.90897 12.59534,15.34169 14.01234,8.24881 19.36859,2.18658 29.452264,-0.69447 11.26957,-5.82614 9.94072,10.74567 16.05421,13.83762 6.11348,3.09194 19.66929,-7.29599 28.70818,-3.04162 19.42323,2.98347 26.28626,26.87452 53.29766,32.95378 27.0114,6.07926 26.18892,-5.65326 54.20561,-1.91695 14.00834,1.86816 -10.27352,21.10353 14.74742,21.36619 12.51047,0.13132 39.02153,6.05324 52.45763,-13.37805 13.51455,-19.54473 54.01205,-14.16192 59.62182,-15.17326 22.43909,-4.04538 48.01981,-15.3616 58.29842,-32.62742 z"
       inkscape:connector-curvature="0"
       sodipodi:nodetypes="ccsssccsccscssscssssscscsssssc" />
    <text
       xml:space="preserve"
       style="font-style:normal;font-weight:normal;font-size:70px;line-height:125%;font-family:sans-serif;letter-spacing:0px;word-spacing:0px;fill:#000000;fill-opacity:1;stroke:#000000;stroke-width:1px;stroke-linecap:butt;stroke-linejoin:miter;stroke-opacity:1"
       x="154.54636"
       y="879.34552"
       id="text3336"
       sodipodi:linespacing="125%"><tspan
         sodipodi:role="line"
         id="tspan3338"
         x="154.54636"
         y="879.34552"
         style="font-style:italic;font-variant:normal;font-weight:normal;font-stretch:normal;font-size:250px;font-family:sans-serif;-inkscape-font-specification:'sans-serif Italic';text-align:center;text-anchor:middle;stroke:#000000;stroke-opacity:1">B</tspan></text>
    <text
       xml:space="preserve"
       style="font-style:italic;font-variant:normal;font-weight:bold;font-stretch:normal;font-size:70px;line-height:125%;font-family:sans-serif;-inkscape-font-specification:'sans-serif Bold Italic';letter-spacing:0px;word-spacing:0px;fill:#000000;fill-opacity:1;stroke:none;stroke-width:1px;stroke-linecap:butt;stroke-linejoin:miter;stroke-opacity:1"
       x="216.62067"
       y="868.79144"
       id="text4182"
       sodipodi:linespacing="125%"><tspan
         sodipodi:role="line"
         id="tspan4184"
         x="216.62067"
         y="868.79144"
         style="font-size:102.5px">rain</tspan></text>
  </g>
</svg>
