<?xml version="1.0" encoding="UTF-8" standalone="no"?>
<!-- Created with Inkscape (http://www.inkscape.org/) -->

<svg
   xmlns:dc="http://purl.org/dc/elements/1.1/"
   xmlns:cc="http://creativecommons.org/ns#"
   xmlns:rdf="http://www.w3.org/1999/02/22-rdf-syntax-ns#"
   xmlns:svg="http://www.w3.org/2000/svg"
   xmlns="http://www.w3.org/2000/svg"
   xmlns:sodipodi="http://sodipodi.sourceforge.net/DTD/sodipodi-0.dtd"
   xmlns:inkscape="http://www.inkscape.org/namespaces/inkscape"
   width="500"
   height="500"
   viewBox="0 0 500.00001 500.00001"
   id="svg2"
   version="1.1"
   inkscape:version="0.91 r13725"
   sodipodi:docname="logo.svg"
   inkscape:export-filename="/home/sunjay/Documents/projects/brain/logo/logo.png"
   inkscape:export-xdpi="90"
   inkscape:export-ydpi="90">
  <defs
     id="defs4">
    <inkscape:path-effect
       effect="spiro"
       id="path-effect4180"
       is_visible="true" />
    <inkscape:path-effect
       effect="skeletal"
       id="path-effect3362"
       is_visible="true"
       pattern="m 2.4720058,542.26691 c 0,-2.76 2.24,-5 5,-5 2.7600002,0 5.0000002,2.24 5.0000002,5 0,2.76 -2.24,5 -5.0000002,5 -2.76,0 -5,-2.24 -5,-5 z"
       copytype="single_stretched"
       prop_scale="1"
       scale_y_rel="false"
       spacing="0"
       normal_offset="0"
       tang_offset="0"
       prop_units="false"
       vertical_pattern="false"
       fuse_tolerance="0" />
    <inkscape:path-effect
       effect="spiro"
       id="path-effect3360"
       is_visible="true" />
    <inkscape:path-effect
       effect="skeletal"
       id="path-effect3356"
       is_visible="true"
       pattern="m 0,557.36216 c 0,-2.76 2.24,-5 5,-5 2.76,0 5,2.24 5,5 0,2.76 -2.24,5 -5,5 -2.76,0 -5,-2.24 -5,-5 z"
       copytype="single_stretched"
       prop_scale="1"
       scale_y_rel="false"
       spacing="0"
       normal_offset="0"
       tang_offset="0"
       prop_units="false"
       vertical_pattern="false"
       fuse_tolerance="0" />
    <inkscape:path-effect
       effect="spiro"
       id="path-effect3354"
       is_visible="true" />
    <inkscape:path-effect
       effect="skeletal"
       id="path-effect3350"
       is_visible="true"
       pattern="m 0,557.36216 c 0,-2.76 2.24,-5 5,-5 2.76,0 5,2.24 5,5 0,2.76 -2.24,5 -5,5 -2.76,0 -5,-2.24 -5,-5 z"
       copytype="single_stretched"
       prop_scale="1"
       scale_y_rel="false"
       spacing="0"
       normal_offset="0"
       tang_offset="0"
       prop_units="false"
       vertical_pattern="false"
       fuse_tolerance="0" />
    <inkscape:path-effect
       effect="spiro"
       id="path-effect3348"
       is_visible="true" />
    <inkscape:path-effect
       effect="spiro"
       id="path-effect3344"
       is_visible="true" />
  </defs>
  <sodipodi:namedview
     id="base"
     pagecolor="#ffffff"
     bordercolor="#666666"
     borderopacity="1.0"
     inkscape:pageopacity="0.0"
     inkscape:pageshadow="2"
     inkscape:zoom="0.24748737"
     inkscape:cx="264.42381"
     inkscape:cy="238.97938"
     inkscape:document-units="px"
     inkscape:current-layer="layer1"
     showgrid="false"
     units="px"
     inkscape:window-width="1920"
     inkscape:window-height="1027"
     inkscape:window-x="0"
     inkscape:window-y="0"
     inkscape:window-maximized="1" />
  <metadata
     id="metadata7">
    <rdf:RDF>
      <cc:Work
         rdf:about="">
        <dc:format>image/svg+xml</dc:format>
        <dc:type
           rdf:resource="http://purl.org/dc/dcmitype/StillImage" />
        <dc:title></dc:title>
      </cc:Work>
    </rdf:RDF>
  </metadata>
  <g
     inkscape:label="Layer 1"
     inkscape:groupmode="layer"
     id="layer1"
     transform="translate(0,-552.36216)">
    <path
       style="fill:#ffcdd2;fill-rule:evenodd;stroke:#000000;stroke-width:12;stroke-linecap:butt;stroke-linejoin:miter;stroke-miterlimit:4;stroke-dasharray:none;stroke-opacity:1;fill-opacity:1"
       d="M 86.959385,906.91217 C 69.072573,899.89907 53.273488,887.65333 42.021016,872.0808 30.768544,856.50828 24.102055,837.66346 23.059085,818.47925 c -1.05619,-19.42737 3.662063,-39.13284 13.402596,-55.97506 9.740533,-16.84222 24.46752,-30.75924 41.833254,-39.53247 -16.313986,-16.06669 -24.360674,-40.12016 -20.998401,-62.76922 3.362272,-22.64905 18.049474,-43.32765 38.327291,-53.96226 16.917665,-8.87239 37.379875,-10.73389 55.620855,-5.05998 18.24098,5.67392 34.03701,18.81366 42.93713,35.71675 4.34217,-16.25473 14.23525,-30.97218 27.64757,-41.12995 13.41233,-10.15777 30.26002,-15.69234 47.08322,-15.46712 18.28526,0.24479 36.39941,7.33155 49.99636,19.55994 13.59695,12.22839 22.55846,29.49211 24.73443,47.64908 15.57749,-5.38445 32.90471,-5.56434 48.59064,-0.50448 15.68593,5.05986 29.64195,15.33089 39.13682,28.80301 10.8954,15.45931 15.77129,35.0484 13.39411,53.81137 -2.37717,18.76296 -11.98428,36.51713 -26.39078,48.77081 15.32925,4.48835 29.17894,13.88975 39.00867,26.47972 9.82973,12.58998 15.59103,28.30646 16.22712,44.26661 0.64652,16.22175 -4.00994,32.61212 -13.08863,46.07097 -9.0787,13.45884 -22.53188,23.91537 -37.81494,29.39178 11.78243,14.27742 16.7911,33.91329 13.28701,52.08997 -3.5041,18.17668 -15.45335,34.54338 -31.69894,43.41758 -14.82302,8.0971 -32.96229,9.8862 -49.08154,4.8409 -16.11924,-5.0453 -30.00151,-16.857 -37.56286,-31.96033 -11.44147,15.28603 -27.44368,27.11313 -45.41428,33.56523 -17.9706,6.452 -37.84124,7.5045 -56.39288,2.987 -16.94309,-4.1258 -32.73895,-12.8651 -45.23583,-25.0273 -12.49688,-12.16216 -21.66163,-27.71501 -26.24579,-44.53988 -7.12225,9.81302 -18.99184,16.00555 -31.11496,16.23311 -12.12312,0.22755 -24.216735,-5.51518 -31.702225,-15.05401 -6.195077,-7.89444 -9.197916,-18.2232 -8.200965,-28.20855 0.996952,-9.98536 5.982632,-19.51653 13.616245,-26.0303 z"
       id="path4178"
       inkscape:path-effect="#path-effect4180"
       inkscape:original-d="m 86.959385,906.91217 c 0,0 -56.3189,-4.71642 -63.9003,-88.43292 -7.5813,-83.71648 55.23585,-95.50753 55.23585,-95.50753 0,0 -37.90695,-81.35828 17.32889,-116.73148 55.235795,-35.3731 98.557985,30.65677 98.557985,30.65677 0,0 12.99666,-60.13437 74.73079,-56.59707 61.73414,3.5373 74.73079,67.20902 74.73079,67.20902 0,0 51.98663,-35.37312 87.72746,28.29853 35.74082,63.6717 -12.99667,102.58218 -12.99667,102.58218 0,0 56.31879,10.61195 55.23579,70.74633 -1.083,60.13437 -50.90357,75.46275 -50.90357,75.46275 0,0 18.4119,62.4926 -18.41193,95.50755 -36.82386,33.0149 -86.6444,-27.11943 -86.6444,-27.11943 0,0 -36.82387,56.59703 -101.80716,36.55223 -64.98329,-20.0448 -71.48162,-69.56718 -71.48162,-69.56718 0,0 -41.15608,23.58211 -62.817185,1.1791 -21.6611,-22.40301 5.41528,-54.23885 5.41528,-54.23885 z"
       inkscape:connector-curvature="0" />
    <text
       xml:space="preserve"
       style="font-style:normal;font-weight:normal;font-size:70px;line-height:125%;font-family:sans-serif;letter-spacing:0px;word-spacing:0px;fill:#000000;fill-opacity:1;stroke:#000000;stroke-width:1px;stroke-linecap:butt;stroke-linejoin:miter;stroke-opacity:1"
       x="154.54636"
       y="879.34552"
       id="text3336"
       sodipodi:linespacing="125%"><tspan
         sodipodi:role="line"
         id="tspan3338"
         x="154.54636"
         y="879.34552"
         style="font-style:italic;font-variant:normal;font-weight:normal;font-stretch:normal;font-size:250px;font-family:sans-serif;-inkscape-font-specification:'sans-serif Italic';text-align:center;text-anchor:middle;stroke:#000000;stroke-opacity:1">B</tspan></text>
    <text
       xml:space="preserve"
       style="font-style:italic;font-variant:normal;font-weight:bold;font-stretch:normal;font-size:70px;line-height:125%;font-family:sans-serif;-inkscape-font-specification:'sans-serif Bold Italic';letter-spacing:0px;word-spacing:0px;fill:#000000;fill-opacity:1;stroke:none;stroke-width:1px;stroke-linecap:butt;stroke-linejoin:miter;stroke-opacity:1"
       x="216.62067"
       y="868.79144"
       id="text4182"
       sodipodi:linespacing="125%"><tspan
         sodipodi:role="line"
         id="tspan4184"
         x="216.62067"
         y="868.79144"
         style="font-size:102.5px">rain</tspan></text>
  </g>
</svg>
